<svg xmlns="http://www.w3.org/2000/svg" width="1422" height="737" viewBox="0 0 1422 737">
<g>
<path d="M 369.70 577.93 C358.37,579.19 328.61,579.13 318.20,577.83 C306.94,576.41 292.68,572.46 284.20,568.41 C267.63,560.48 254.83,542.76 249.00,519.67 C242.66,494.52 241.09,470.69 240.34,388.50 C239.16,259.01 242.92,212.18 256.60,186.00 C266.98,166.12 280.59,156.63 307.08,150.82 C316.55,148.74 320.01,148.53 345.00,148.55 C369.82,148.57 373.52,148.79 382.92,150.84 C409.85,156.70 422.95,166.07 433.49,187.00 C440.09,200.11 444.23,218.61 447.13,248.00 C448.78,264.67 449.52,433.58 448.06,460.00 C444.95,516.28 438.21,539.90 420.08,558.10 C409.40,568.80 392.75,575.36 369.70,577.93 ZM 1422.00 549.26 L 1422.00 550.69 L 1418.14 556.66 C1408.64,571.37 1391.07,579.00 1366.75,579.00 C1354.60,579.00 1347.40,577.38 1337.00,572.32 C1327.28,567.58 1319.42,559.69 1314.60,549.81 C1307.37,535.00 1307.65,538.43 1307.05,458.50 C1306.44,378.14 1306.87,382.71 1299.27,375.86 C1294.01,371.11 1288.65,370.00 1270.95,370.00 L 1257.00 370.00 L 1257.00 574.00 L 1179.00 574.00 L 1179.00 152.86 L 1245.75 153.30 C1316.57,153.77 1317.98,153.85 1336.45,158.92 C1364.65,166.66 1380.23,184.29 1384.62,213.40 C1386.88,228.38 1386.07,302.30 1383.54,312.50 C1379.25,329.80 1369.47,343.02 1355.75,350.04 C1352.04,351.94 1349.01,353.77 1349.00,354.09 C1349.00,354.42 1350.91,355.25 1353.25,355.94 C1366.14,359.74 1377.31,371.28 1382.22,385.85 C1384.44,392.43 1384.47,393.25 1384.98,464.00 C1385.46,529.30 1385.65,535.77 1387.23,538.66 C1389.50,542.82 1393.40,545.80 1397.59,546.58 C1402.41,547.49 1405.49,546.46 1409.92,542.45 L 1413.79 538.95 L 1417.90 544.11 L 1422.00 549.26 ZM 777.01 362.00 L 776.50 573.50 L 737.75 573.76 L 699.00 574.02 L 699.00 153.00 L 776.99 153.00 L 777.50 331.50 L 802.25 331.77 L 827.00 332.03 L 827.00 153.00 L 906.00 153.00 L 905.75 363.25 L 905.50 573.50 L 827.50 573.50 L 826.99 362.00 ZM 1073.62 577.46 C1064.20,578.86 1033.36,579.44 1026.00,578.36 C1024.62,578.16 1020.12,577.50 1016.00,576.90 C1005.73,575.40 991.93,570.80 983.36,566.03 C960.09,553.07 947.16,528.55 941.41,486.50 C939.84,474.99 939.59,462.46 939.23,377.00 C938.82,278.11 939.49,247.81 942.64,223.51 C946.12,196.64 952.54,180.19 963.91,169.00 C973.75,159.31 985.34,153.93 1004.03,150.37 C1015.29,148.22 1057.96,147.33 1072.20,148.94 C1101.55,152.27 1118.74,160.65 1129.28,176.78 C1139.01,191.67 1143.26,208.70 1146.18,244.41 C1147.60,261.71 1147.98,366.51 1146.67,377.24 L 1145.84 383.99 L 1081.17 384.24 L 1016.50 384.50 L 1016.53 431.50 C1016.56,463.25 1016.99,482.38 1017.88,490.45 C1020.93,518.30 1028.21,533.93 1041.23,540.59 C1059.42,549.90 1093.19,546.74 1105.34,534.60 C1113.82,526.12 1116.96,514.83 1116.98,492.75 L 1117.00 478.00 L 1139.26 478.00 L 1138.74 497.25 C1138.30,513.58 1137.84,517.98 1135.67,526.24 C1132.09,539.91 1127.11,549.00 1118.55,557.50 C1107.53,568.44 1094.07,574.42 1073.62,577.46 ZM 0.00 574.02 L 0.00 153.00 L 78.99 153.00 L 79.50 346.10 L 117.85 275.35 C153.74,209.13 156.15,204.37 155.59,200.81 C153.34,186.78 144.09,175.68 127.75,167.43 L 118.01 162.50 L 118.00 157.75 L 118.00 153.00 L 213.03 153.00 L 210.59 157.75 C209.25,160.36 195.79,185.14 180.68,212.82 L 153.21 263.14 L 159.13 286.32 C162.39,299.07 174.04,345.05 185.03,388.50 C196.01,431.95 211.00,491.23 218.35,520.23 C225.69,549.23 231.47,573.20 231.18,573.48 C230.90,573.77 212.55,574.00 190.40,574.00 C152.92,574.00 150.10,573.88 149.61,572.25 C149.12,570.60 107.02,384.34 103.39,367.75 C102.45,363.49 101.42,360.01 101.10,360.03 C100.77,360.04 95.78,368.81 90.00,379.52 L 79.50 398.98 L 79.00 486.24 L 78.50 573.50 L 0.00 574.02 ZM 598.00 577.12 C585.29,579.70 560.74,580.40 547.85,578.55 C509.15,572.98 483.00,554.21 472.95,524.76 C466.25,505.15 466.65,486.34 474.07,471.22 C484.52,449.95 511.66,441.17 533.60,451.97 C541.12,455.68 550.67,465.46 554.27,473.17 C563.95,493.83 557.98,519.12 540.66,530.84 C534.09,535.29 528.16,537.22 519.00,537.88 L 510.50 538.50 L 515.11 541.21 C526.27,547.77 539.08,551.00 553.93,551.00 C569.97,551.00 581.15,547.90 589.82,541.05 C600.39,532.69 604.99,521.08 605.76,500.85 C606.74,474.92 600.17,451.82 586.18,432.00 C583.66,428.42 567.50,406.49 550.27,383.25 C533.04,360.01 515.17,335.73 510.55,329.30 C493.22,305.19 483.99,287.06 480.33,270.00 C477.78,258.09 477.78,230.90 480.33,219.02 C487.94,183.58 509.58,160.75 544.51,151.30 C553.98,148.74 555.68,148.60 577.00,148.60 C598.10,148.60 600.10,148.76 609.07,151.20 C636.17,158.55 653.26,174.12 660.99,198.50 C663.81,207.37 664.88,227.10 662.99,235.12 C658.88,252.58 646.51,264.65 629.30,268.03 C621.18,269.62 613.84,268.63 605.91,264.88 C588.17,256.49 579.03,241.07 580.24,221.56 C581.56,200.52 595.44,186.02 616.08,184.12 L 624.50 183.35 L 619.89 181.19 C611.03,177.04 603.27,175.63 589.00,175.56 C568.86,175.47 559.04,179.35 551.70,190.27 C545.83,199.02 544.49,204.59 544.56,220.00 C544.63,236.39 546.77,245.60 553.96,260.50 C559.24,271.43 561.47,274.41 600.05,322.13 C613.56,338.84 628.23,357.23 632.67,363.00 C660.64,399.45 669.79,421.20 673.07,459.13 C678.72,524.30 652.11,566.11 598.00,577.12 ZM 331.50 551.16 C334.75,552.69 337.37,552.99 345.50,552.76 C361.15,552.31 365.80,548.90 369.68,535.00 C371.41,528.84 371.50,519.85 371.50,362.00 C371.50,205.30 371.40,195.16 369.72,189.75 C366.11,178.06 359.33,173.78 344.35,173.75 C329.85,173.72 324.35,177.21 320.36,189.00 C318.58,194.26 318.49,201.61 318.20,357.50 C317.89,527.44 317.98,531.54 322.12,540.96 C324.65,546.74 326.60,548.86 331.50,551.16 ZM 1016.68 354.35 C1017.06,354.72 1029.77,354.91 1044.93,354.77 L 1072.50 354.50 L 1072.78 285.00 C1073.08,212.30 1072.71,203.64 1068.83,193.27 C1064.45,181.56 1057.06,176.98 1042.57,177.02 C1024.66,177.07 1019.22,183.87 1017.02,209.00 C1015.91,221.75 1015.60,353.27 1016.68,354.35 ZM 1257.00 182.73 L 1257.00 342.00 L 1269.45 342.00 C1276.30,342.00 1284.19,341.51 1286.99,340.91 C1298.66,338.41 1305.30,329.20 1307.10,313.02 C1308.56,299.93 1307.70,210.16 1306.05,203.74 C1304.06,195.96 1299.36,189.93 1292.68,186.59 C1287.23,183.87 1285.93,183.66 1271.93,183.21 Z" fill="rgb(110,19,60)"/>
<path d="M 968.00 700.00 L 968.00 735.00 L 953.00 735.00 L 953.00 632.00 L 976.75 632.01 C1007.17,632.03 1012.29,633.24 1021.69,642.64 C1028.46,649.41 1030.49,654.68 1030.49,665.50 C1030.49,676.05 1028.58,681.24 1022.13,688.24 C1014.01,697.05 1003.82,699.98 981.25,699.99 ZM 1147.65 715.50 L 1139.65 735.00 L 1131.82 735.00 C1127.52,735.00 1124.00,734.60 1124.00,734.11 C1124.00,733.62 1131.36,715.28 1140.35,693.36 C1149.34,671.44 1158.65,648.66 1161.05,642.75 L 1165.40 632.00 L 1173.59 632.00 C1179.21,632.00 1181.95,632.39 1182.29,633.25 C1182.57,633.94 1191.67,656.10 1202.50,682.50 C1213.33,708.90 1222.59,731.51 1223.07,732.75 C1223.94,734.97 1223.85,735.00 1215.73,734.99 L 1207.50 734.98 L 1203.51 724.98 L 1199.53 714.97 L 1173.59 715.23 ZM 1405.00 721.00 L 1405.00 735.00 L 1333.00 735.00 L 1333.00 632.00 L 1405.09 632.00 L 1404.50 646.50 L 1347.95 647.03 L 1348.50 675.50 L 1400.09 676.03 L 1399.50 689.50 L 1373.75 689.77 L 1348.00 690.03 L 1348.00 721.00 ZM 301.98 0.00 L 372.00 0.00 L 372.00 14.00 L 316.00 14.00 L 316.00 42.00 L 367.09 42.00 L 366.79 49.25 L 366.50 56.50 L 315.95 57.03 L 316.50 86.50 L 344.25 86.77 L 372.00 87.03 L 372.00 101.03 L 337.25 100.76 L 302.50 100.50 ZM 267.04 0.00 L 281.02 0.00 L 280.50 100.50 L 273.75 100.80 L 267.00 101.09 L 267.00 57.00 L 215.04 57.00 L 214.50 100.50 L 200.50 100.50 L 199.98 0.00 L 215.00 0.00 L 215.00 42.03 L 240.75 41.77 L 266.50 41.50 ZM 1422.00 737.00 L 0.00 737.00 L 637.25 736.95 C1214.27,736.90 1269.47,736.83 1269.51,735.39 C1269.51,735.30 1269.31,735.21 1269.00,735.11 C1245.63,727.55 1230.96,707.83 1231.02,684.07 C1231.05,673.43 1232.16,668.47 1236.58,659.28 C1245.99,639.69 1268.12,627.70 1289.12,630.82 C1298.03,632.14 1309.01,637.34 1314.25,642.73 L 1318.00 646.58 L 1313.12 651.38 L 1308.25 656.18 L 1302.12 651.66 C1293.99,645.69 1290.58,644.68 1280.13,645.18 C1272.99,645.53 1270.59,646.09 1266.21,648.48 C1243.07,661.08 1239.08,695.00 1258.62,713.00 C1272.11,725.44 1290.86,725.84 1304.37,713.98 L 1308.14 710.67 L 1313.32 715.89 L 1318.50 721.12 L 1314.50 724.54 C1309.84,728.52 1300.36,733.78 1294.55,735.60 C1291.18,736.65 1301.58,736.88 1356.25,736.93 ZM 107.00 0.00 L 184.00 0.00 L 184.00 14.00 L 153.02 14.00 L 152.50 100.50 L 145.76 100.80 L 139.02 101.09 L 138.76 57.80 L 138.50 14.50 L 122.75 14.22 L 107.00 13.95 ZM 1112.00 721.00 L 1112.00 735.00 L 1045.00 735.00 L 1045.00 631.91 L 1059.50 632.50 L 1060.02 721.00 ZM 968.00 646.87 L 968.00 685.17 L 984.75 684.83 C999.78,684.52 1001.93,684.25 1005.69,682.25 C1018.39,675.49 1019.60,658.06 1007.92,650.32 C1003.70,647.53 1003.48,647.50 985.83,647.19 ZM 1154.65 700.25 C1155.31,701.32 1193.00,701.19 1193.00,700.11 C1193.00,698.89 1174.93,654.70 1174.02,653.70 C1173.20,652.79 1153.93,699.08 1154.65,700.25 Z" fill="rgb(208,163,88)"/>
<path d="M 0.00 655.51 L 0.00 574.02 L 39.25 573.76 L 78.50 573.50 L 79.00 486.24 L 79.50 398.98 L 90.00 379.52 C95.78,368.81 100.77,360.04 101.10,360.03 C101.42,360.01 102.45,363.49 103.39,367.75 C107.02,384.34 149.12,570.60 149.61,572.25 C150.10,573.88 152.92,574.00 190.40,574.00 C212.55,574.00 230.90,573.77 231.18,573.48 C231.47,573.20 225.69,549.23 218.35,520.23 C211.00,491.23 196.01,431.95 185.03,388.50 C174.04,345.05 162.39,299.07 159.13,286.32 L 153.21 263.14 L 180.68 212.82 C195.79,185.14 209.25,160.36 210.59,157.75 L 213.03 153.00 L 165.52 153.00 L 118.00 153.00 L 118.00 157.75 L 118.01 162.50 L 127.75 167.43 C144.09,175.68 153.34,186.78 155.59,200.81 C156.15,204.37 153.74,209.13 117.85,275.35 L 79.50 346.10 L 79.25 249.55 L 78.99 153.00 L 39.50 153.00 L 0.00 153.00 L 0.00 76.50 L 0.00 0.00 L 53.50 0.00 L 107.00 0.00 L 107.00 6.97 L 107.00 13.95 L 122.75 14.22 L 138.50 14.50 L 138.76 57.80 L 139.02 101.09 L 145.76 100.80 L 152.50 100.50 L 152.76 57.25 L 153.02 14.00 L 168.51 14.00 L 184.00 14.00 L 184.00 7.00 L 184.00 0.00 L 191.99 -0.00 L 199.98 -0.00 L 200.24 50.25 L 200.50 100.50 L 207.50 100.50 L 214.50 100.50 L 214.77 78.75 L 215.04 57.00 L 241.02 57.00 L 267.00 57.00 L 267.00 79.05 L 267.00 101.09 L 273.75 100.80 L 280.50 100.50 L 280.76 50.25 L 281.02 -0.00 L 291.50 -0.00 L 301.98 -0.00 L 302.24 50.25 L 302.50 100.50 L 337.25 100.76 L 372.00 101.03 L 372.00 94.03 L 372.00 87.03 L 344.25 86.77 L 316.50 86.50 L 316.22 71.77 L 315.95 57.03 L 341.22 56.77 L 366.50 56.50 L 366.79 49.25 L 367.09 42.00 L 341.54 42.00 L 316.00 42.00 L 316.00 28.00 L 316.00 14.00 L 344.00 14.00 L 372.00 14.00 L 372.00 7.00 L 372.00 0.00 L 897.00 0.00 L 1422.00 0.00 L 1422.00 274.63 L 1422.00 549.26 L 1417.90 544.11 L 1413.79 538.95 L 1409.92 542.45 C1405.49,546.46 1402.41,547.49 1397.59,546.58 C1393.40,545.80 1389.50,542.82 1387.23,538.66 C1385.65,535.77 1385.46,529.30 1384.98,464.00 C1384.47,393.25 1384.44,392.43 1382.22,385.85 C1377.31,371.28 1366.14,359.74 1353.25,355.94 C1350.91,355.25 1349.00,354.42 1349.00,354.09 C1349.01,353.77 1352.04,351.94 1355.75,350.04 C1369.47,343.02 1379.25,329.80 1383.54,312.50 C1386.07,302.30 1386.88,228.38 1384.62,213.40 C1380.23,184.29 1364.65,166.66 1336.45,158.92 C1317.98,153.85 1316.57,153.77 1245.75,153.30 L 1179.00 152.86 L 1179.00 363.43 L 1179.00 574.00 L 1218.00 574.00 L 1257.00 574.00 L 1257.00 472.00 L 1257.00 370.00 L 1270.95 370.00 C1288.65,370.00 1294.01,371.11 1299.27,375.86 C1306.87,382.71 1306.44,378.14 1307.05,458.50 C1307.65,538.43 1307.37,535.00 1314.60,549.81 C1319.42,559.69 1327.28,567.58 1337.00,572.32 C1347.40,577.38 1354.60,579.00 1366.75,579.00 C1391.07,579.00 1408.64,571.37 1418.14,556.66 L 1422.00 550.69 L 1422.00 643.84 L 1422.00 737.00 L 1356.25 736.93 C1301.58,736.88 1291.18,736.65 1294.55,735.60 C1300.36,733.78 1309.84,728.52 1314.50,724.54 L 1318.50 721.12 L 1313.32 715.89 L 1308.14 710.67 L 1304.37 713.98 C1290.86,725.84 1272.11,725.44 1258.62,713.00 C1239.08,695.00 1243.07,661.08 1266.21,648.48 C1270.59,646.09 1272.99,645.53 1280.13,645.18 C1290.58,644.68 1293.99,645.69 1302.12,651.66 L 1308.25 656.18 L 1313.12 651.38 L 1318.00 646.58 L 1314.25 642.73 C1309.01,637.34 1298.03,632.14 1289.12,630.82 C1268.12,627.70 1245.99,639.69 1236.58,659.28 C1232.16,668.47 1231.05,673.43 1231.02,684.07 C1230.96,707.83 1245.63,727.55 1269.00,735.11 C1274.29,736.82 1249.71,736.89 637.25,736.95 L 0.00 737.00 L 0.00 655.51 ZM 968.00 717.50 L 968.00 700.00 L 981.25 699.99 C1003.82,699.98 1014.01,697.05 1022.13,688.24 C1028.58,681.24 1030.49,676.05 1030.49,665.50 C1030.49,654.68 1028.46,649.41 1021.69,642.64 C1012.29,633.24 1007.17,632.03 976.75,632.01 L 953.00 632.00 L 953.00 683.50 L 953.00 735.00 L 960.50 735.00 L 968.00 735.00 L 968.00 717.50 ZM 1112.00 728.00 L 1112.00 721.00 L 1086.01 721.00 L 1060.02 721.00 L 1059.76 676.75 L 1059.50 632.50 L 1052.25 632.21 L 1045.00 631.91 L 1045.00 683.46 L 1045.00 735.00 L 1078.50 735.00 L 1112.00 735.00 L 1112.00 728.00 ZM 1143.65 725.25 L 1147.65 715.50 L 1173.59 715.23 L 1199.53 714.97 L 1203.51 724.98 L 1207.50 734.98 L 1215.73 734.99 C1223.85,735.00 1223.94,734.97 1223.07,732.75 C1222.59,731.51 1213.33,708.90 1202.50,682.50 C1191.67,656.10 1182.57,633.94 1182.29,633.25 C1181.95,632.39 1179.21,632.00 1173.59,632.00 L 1165.40 632.00 L 1161.05 642.75 C1158.65,648.66 1149.34,671.44 1140.35,693.36 C1131.36,715.28 1124.00,733.62 1124.00,734.11 C1124.00,734.60 1127.52,735.00 1131.82,735.00 L 1139.65 735.00 L 1143.65 725.25 ZM 1405.00 728.00 L 1405.00 721.00 L 1376.50 721.00 L 1348.00 721.00 L 1348.00 705.52 L 1348.00 690.03 L 1373.75 689.77 L 1399.50 689.50 L 1399.80 682.77 L 1400.09 676.03 L 1374.30 675.77 L 1348.50 675.50 L 1348.22 661.27 L 1347.95 647.03 L 1376.22 646.77 L 1404.50 646.50 L 1404.79 639.25 L 1405.09 632.00 L 1369.04 632.00 L 1333.00 632.00 L 1333.00 683.50 L 1333.00 735.00 L 1369.00 735.00 L 1405.00 735.00 L 1405.00 728.00 ZM 598.00 577.12 C652.11,566.11 678.72,524.30 673.07,459.13 C669.79,421.20 660.64,399.45 632.67,363.00 C628.23,357.23 613.56,338.84 600.05,322.13 C561.47,274.41 559.24,271.43 553.96,260.50 C546.77,245.60 544.63,236.39 544.56,220.00 C544.49,204.59 545.83,199.02 551.70,190.27 C559.04,179.35 568.86,175.47 589.00,175.56 C603.27,175.63 611.03,177.04 619.89,181.19 L 624.50 183.35 L 616.08 184.12 C595.44,186.02 581.56,200.52 580.24,221.56 C579.03,241.07 588.17,256.49 605.91,264.88 C613.84,268.63 621.18,269.62 629.30,268.03 C646.51,264.65 658.88,252.58 662.99,235.12 C664.88,227.10 663.81,207.37 660.99,198.50 C653.26,174.12 636.17,158.55 609.07,151.20 C600.10,148.76 598.10,148.60 577.00,148.60 C555.68,148.60 553.98,148.74 544.51,151.30 C509.58,160.75 487.94,183.58 480.33,219.02 C477.78,230.90 477.78,258.09 480.33,270.00 C483.99,287.06 493.22,305.19 510.55,329.30 C515.17,335.73 533.04,360.01 550.27,383.25 C567.50,406.49 583.66,428.42 586.18,432.00 C600.17,451.82 606.74,474.92 605.76,500.85 C604.99,521.08 600.39,532.69 589.82,541.05 C581.15,547.90 569.97,551.00 553.93,551.00 C539.08,551.00 526.27,547.77 515.11,541.21 L 510.50 538.50 L 519.00 537.88 C528.16,537.22 534.09,535.29 540.66,530.84 C557.98,519.12 563.95,493.83 554.27,473.17 C550.67,465.46 541.12,455.68 533.60,451.97 C511.66,441.17 484.52,449.95 474.07,471.22 C466.65,486.34 466.25,505.15 472.95,524.76 C483.00,554.21 509.15,572.98 547.85,578.55 C560.74,580.40 585.29,579.70 598.00,577.12 ZM 369.70 577.93 C392.75,575.36 409.40,568.80 420.08,558.10 C438.21,539.90 444.95,516.28 448.06,460.00 C449.52,433.58 448.78,264.67 447.13,248.00 C444.23,218.61 440.09,200.11 433.49,187.00 C422.95,166.07 409.85,156.70 382.92,150.84 C373.52,148.79 369.82,148.57 345.00,148.55 C320.01,148.53 316.55,148.74 307.08,150.82 C280.59,156.63 266.98,166.12 256.60,186.00 C242.92,212.18 239.16,259.01 240.34,388.50 C241.09,470.69 242.66,494.52 249.00,519.67 C254.83,542.76 267.63,560.48 284.20,568.41 C292.68,572.46 306.94,576.41 318.20,577.83 C328.61,579.13 358.37,579.19 369.70,577.93 ZM 1073.62 577.46 C1094.07,574.42 1107.53,568.44 1118.55,557.50 C1127.11,549.00 1132.09,539.91 1135.67,526.24 C1137.84,517.98 1138.30,513.58 1138.74,497.25 L 1139.26 478.00 L 1128.13 478.00 L 1117.00 478.00 L 1116.98 492.75 C1116.96,514.83 1113.82,526.12 1105.34,534.60 C1093.19,546.74 1059.42,549.90 1041.23,540.59 C1028.21,533.93 1020.93,518.30 1017.88,490.45 C1016.99,482.38 1016.56,463.25 1016.53,431.50 L 1016.50 384.50 L 1081.17 384.24 L 1145.84 383.99 L 1146.67 377.24 C1147.98,366.51 1147.60,261.71 1146.18,244.41 C1143.26,208.70 1139.01,191.67 1129.28,176.78 C1118.74,160.65 1101.55,152.27 1072.20,148.94 C1057.96,147.33 1015.29,148.22 1004.03,150.37 C985.34,153.93 973.75,159.31 963.91,169.00 C952.54,180.19 946.12,196.64 942.64,223.51 C939.49,247.81 938.82,278.11 939.23,377.00 C939.59,462.46 939.84,474.99 941.41,486.50 C947.16,528.55 960.09,553.07 983.36,566.03 C991.93,570.80 1005.73,575.40 1016.00,576.90 C1020.12,577.50 1024.62,578.16 1026.00,578.36 C1033.36,579.44 1064.20,578.86 1073.62,577.46 ZM 776.75 467.75 L 777.01 362.00 L 802.00 362.00 L 826.99 362.00 L 827.25 467.75 L 827.50 573.50 L 866.50 573.50 L 905.50 573.50 L 905.75 363.25 L 906.00 153.00 L 866.50 153.00 L 827.00 153.00 L 827.00 242.52 L 827.00 332.03 L 802.25 331.77 L 777.50 331.50 L 777.24 242.25 L 776.99 153.00 L 737.99 153.00 L 699.00 153.00 L 699.00 363.51 L 699.00 574.02 L 737.75 573.76 L 776.50 573.50 L 776.75 467.75 ZM 1257.00 262.36 L 1257.00 182.73 L 1271.93 183.21 C1285.93,183.66 1287.23,183.87 1292.68,186.59 C1299.36,189.93 1304.06,195.96 1306.05,203.74 C1307.70,210.16 1308.56,299.93 1307.10,313.02 C1305.30,329.20 1298.66,338.41 1286.99,340.91 C1284.19,341.51 1276.30,342.00 1269.45,342.00 L 1257.00 342.00 L 1257.00 262.36 ZM 215.00 21.02 L 215.00 0.00 L 241.02 -0.00 L 267.04 -0.00 L 266.77 20.75 L 266.50 41.50 L 240.75 41.77 L 215.00 42.03 L 215.00 21.02 ZM 968.00 666.02 L 968.00 646.87 L 985.83 647.19 C1003.48,647.50 1003.70,647.53 1007.92,650.32 C1019.60,658.06 1018.39,675.49 1005.69,682.25 C1001.93,684.25 999.78,684.52 984.75,684.83 L 968.00 685.17 L 968.00 666.02 ZM 1154.65 700.25 C1153.93,699.08 1173.20,652.79 1174.02,653.70 C1174.93,654.70 1193.00,698.89 1193.00,700.11 C1193.00,701.19 1155.31,701.32 1154.65,700.25 ZM 331.50 551.16 C326.60,548.86 324.65,546.74 322.12,540.96 C317.98,531.54 317.89,527.44 318.20,357.50 C318.49,201.61 318.58,194.26 320.36,189.00 C324.35,177.21 329.85,173.72 344.35,173.75 C359.33,173.78 366.11,178.06 369.72,189.75 C371.40,195.16 371.50,205.30 371.50,362.00 C371.50,519.85 371.41,528.84 369.68,535.00 C365.80,548.90 361.15,552.31 345.50,552.76 C337.37,552.99 334.75,552.69 331.50,551.16 ZM 1016.68 354.35 C1015.60,353.27 1015.91,221.75 1017.02,209.00 C1019.22,183.87 1024.66,177.07 1042.57,177.02 C1057.06,176.98 1064.45,181.56 1068.83,193.27 C1072.71,203.64 1073.08,212.30 1072.78,285.00 L 1072.50 354.50 L 1044.93 354.77 C1029.77,354.91 1017.06,354.72 1016.68,354.35 Z" fill="rgb(254,254,254)"/>
</g>
</svg>